<svg width="112" height="106" viewBox="0 0 112 106" fill="none" xmlns="http://www.w3.org/2000/svg">
<g filter="url(#filter0_d_4_11)">
<g filter="url(#filter1_d_4_11)">
<path d="M69.0959 46.1367L63.2522 96.7305H46.8147C45.3147 88.9596 43.9918 80.1263 42.8459 70.2305C42.3251 74.4596 41.1064 83.293 39.1897 96.7305H22.8459L16.9709 46.1367H29.7522L31.0959 63.793L32.4709 80.8242C32.9501 72.0117 34.1584 60.4492 36.0959 46.1367H49.7834C49.9709 47.6159 50.4501 53.1784 51.2209 62.8242L52.6584 82.043C53.3876 69.8138 54.6064 57.8451 56.3147 46.1367H69.0959ZM101.096 46.1367V96.7305H89.5647L82.7209 73.7305V96.7305H71.7209V46.1367H82.7209L90.0959 68.918V46.1367H101.096Z" fill="#066D77"/>
</g>
<g filter="url(#filter2_d_4_11)">
<path d="M69.8326 44.9484L63.9889 95.5422H47.5514C46.0514 87.7713 44.7285 78.938 43.5826 69.0422C43.0618 73.2713 41.8431 82.1047 39.9264 95.5422H23.5826L17.7076 44.9484H30.4889L31.8326 62.6047L33.2076 79.6359C33.6868 70.8234 34.8951 59.2609 36.8326 44.9484H50.5201C50.7076 46.4276 51.1868 51.9901 51.9576 61.6359L53.3951 80.8547C54.1243 68.6255 55.3431 56.6568 57.0514 44.9484H69.8326ZM101.833 44.9484V95.5422H90.3014L83.4576 72.5422V95.5422H72.4576V44.9484H83.4576L90.8326 67.7297V44.9484H101.833Z" fill="#83C5BE"/>
</g>
</g>
<g filter="url(#filter3_d_4_11)">
<g filter="url(#filter4_d_4_11)">
<path d="M57.2099 16.2578L51.3661 66.8516H34.9286C33.4286 59.0807 32.1057 50.2474 30.9599 40.3516C30.4391 44.5807 29.2203 53.4141 27.3036 66.8516H10.9599L5.0849 16.2578H17.8661L19.2099 33.9141L20.5849 50.9453C21.0641 42.1328 22.2724 30.5703 24.2099 16.2578H37.8974C38.0849 17.737 38.5641 23.2995 39.3349 32.9453L40.7724 52.1641C41.5016 39.9349 42.7203 27.9661 44.4286 16.2578H57.2099ZM89.2099 16.2578V66.8516H77.6786L70.8349 43.8516V66.8516H59.8349V16.2578H70.8349L78.2099 39.0391V16.2578H89.2099Z" fill="#83C5BE"/>
</g>
<g filter="url(#filter5_d_4_11)">
<path d="M56.125 14.4062L50.2812 65H33.8438C32.3438 57.2292 31.0208 48.3958 29.875 38.5C29.3542 42.7292 28.1354 51.5625 26.2188 65H9.875L4 14.4062H16.7812L18.125 32.0625L19.5 49.0938C19.9792 40.2812 21.1875 28.7188 23.125 14.4062H36.8125C37 15.8854 37.4792 21.4479 38.25 31.0938L39.6875 50.3125C40.4167 38.0833 41.6354 26.1146 43.3438 14.4062H56.125ZM88.125 14.4062V65H76.5938L69.75 42V65H58.75V14.4062H69.75L77.125 37.1875V14.4062H88.125Z" fill="#066D77"/>
</g>
</g>
<defs>
<filter id="filter0_d_4_11" x="12.9709" y="44.9484" width="92.8617" height="59.782" filterUnits="userSpaceOnUse" color-interpolation-filters="sRGB">
<feFlood flood-opacity="0" result="BackgroundImageFix"/>
<feColorMatrix in="SourceAlpha" type="matrix" values="0 0 0 0 0 0 0 0 0 0 0 0 0 0 0 0 0 0 127 0" result="hardAlpha"/>
<feOffset dy="4"/>
<feGaussianBlur stdDeviation="2"/>
<feComposite in2="hardAlpha" operator="out"/>
<feColorMatrix type="matrix" values="0 0 0 0 0 0 0 0 0 0 0 0 0 0 0 0 0 0 0.25 0"/>
<feBlend mode="normal" in2="BackgroundImageFix" result="effect1_dropShadow_4_11"/>
<feBlend mode="normal" in="SourceGraphic" in2="effect1_dropShadow_4_11" result="shape"/>
</filter>
<filter id="filter1_d_4_11" x="12.9709" y="46.1367" width="92.125" height="58.5938" filterUnits="userSpaceOnUse" color-interpolation-filters="sRGB">
<feFlood flood-opacity="0" result="BackgroundImageFix"/>
<feColorMatrix in="SourceAlpha" type="matrix" values="0 0 0 0 0 0 0 0 0 0 0 0 0 0 0 0 0 0 127 0" result="hardAlpha"/>
<feOffset dy="4"/>
<feGaussianBlur stdDeviation="2"/>
<feComposite in2="hardAlpha" operator="out"/>
<feColorMatrix type="matrix" values="0 0 0 0 0 0 0 0 0 0 0 0 0 0 0 0 0 0 0.25 0"/>
<feBlend mode="normal" in2="BackgroundImageFix" result="effect1_dropShadow_4_11"/>
<feBlend mode="normal" in="SourceGraphic" in2="effect1_dropShadow_4_11" result="shape"/>
</filter>
<filter id="filter2_d_4_11" x="13.7076" y="44.9484" width="92.125" height="58.5938" filterUnits="userSpaceOnUse" color-interpolation-filters="sRGB">
<feFlood flood-opacity="0" result="BackgroundImageFix"/>
<feColorMatrix in="SourceAlpha" type="matrix" values="0 0 0 0 0 0 0 0 0 0 0 0 0 0 0 0 0 0 127 0" result="hardAlpha"/>
<feOffset dy="4"/>
<feGaussianBlur stdDeviation="2"/>
<feComposite in2="hardAlpha" operator="out"/>
<feColorMatrix type="matrix" values="0 0 0 0 0 0 0 0 0 0 0 0 0 0 0 0 0 0 0.25 0"/>
<feBlend mode="normal" in2="BackgroundImageFix" result="effect1_dropShadow_4_11"/>
<feBlend mode="normal" in="SourceGraphic" in2="effect1_dropShadow_4_11" result="shape"/>
</filter>
<filter id="filter3_d_4_11" x="0" y="14.4062" width="93.2099" height="60.4453" filterUnits="userSpaceOnUse" color-interpolation-filters="sRGB">
<feFlood flood-opacity="0" result="BackgroundImageFix"/>
<feColorMatrix in="SourceAlpha" type="matrix" values="0 0 0 0 0 0 0 0 0 0 0 0 0 0 0 0 0 0 127 0" result="hardAlpha"/>
<feOffset dy="4"/>
<feGaussianBlur stdDeviation="2"/>
<feComposite in2="hardAlpha" operator="out"/>
<feColorMatrix type="matrix" values="0 0 0 0 0 0 0 0 0 0 0 0 0 0 0 0 0 0 0.25 0"/>
<feBlend mode="normal" in2="BackgroundImageFix" result="effect1_dropShadow_4_11"/>
<feBlend mode="normal" in="SourceGraphic" in2="effect1_dropShadow_4_11" result="shape"/>
</filter>
<filter id="filter4_d_4_11" x="1.0849" y="16.2578" width="92.125" height="58.5938" filterUnits="userSpaceOnUse" color-interpolation-filters="sRGB">
<feFlood flood-opacity="0" result="BackgroundImageFix"/>
<feColorMatrix in="SourceAlpha" type="matrix" values="0 0 0 0 0 0 0 0 0 0 0 0 0 0 0 0 0 0 127 0" result="hardAlpha"/>
<feOffset dy="4"/>
<feGaussianBlur stdDeviation="2"/>
<feComposite in2="hardAlpha" operator="out"/>
<feColorMatrix type="matrix" values="0 0 0 0 0 0 0 0 0 0 0 0 0 0 0 0 0 0 0.25 0"/>
<feBlend mode="normal" in2="BackgroundImageFix" result="effect1_dropShadow_4_11"/>
<feBlend mode="normal" in="SourceGraphic" in2="effect1_dropShadow_4_11" result="shape"/>
</filter>
<filter id="filter5_d_4_11" x="0" y="14.4062" width="92.125" height="58.5938" filterUnits="userSpaceOnUse" color-interpolation-filters="sRGB">
<feFlood flood-opacity="0" result="BackgroundImageFix"/>
<feColorMatrix in="SourceAlpha" type="matrix" values="0 0 0 0 0 0 0 0 0 0 0 0 0 0 0 0 0 0 127 0" result="hardAlpha"/>
<feOffset dy="4"/>
<feGaussianBlur stdDeviation="2"/>
<feComposite in2="hardAlpha" operator="out"/>
<feColorMatrix type="matrix" values="0 0 0 0 0 0 0 0 0 0 0 0 0 0 0 0 0 0 0.25 0"/>
<feBlend mode="normal" in2="BackgroundImageFix" result="effect1_dropShadow_4_11"/>
<feBlend mode="normal" in="SourceGraphic" in2="effect1_dropShadow_4_11" result="shape"/>
</filter>
</defs>
</svg>
